<?xml version="1.0" standalone="no"?>
<!DOCTYPE svg PUBLIC "-//W3C//DTD SVG 20010904//EN"
 "http://www.w3.org/TR/2001/REC-SVG-20010904/DTD/svg10.dtd">
<svg version="1.0" xmlns="http://www.w3.org/2000/svg"
 width="2256.000000pt" height="2256.000000pt" viewBox="0 0 2256.000000 2256.000000"
 preserveAspectRatio="xMidYMid meet">
<metadata>
Created by potrace 1.11, written by Peter Selinger 2001-2013
</metadata>
<g transform="translate(0.000000,2256.000000) scale(0.100000,-0.100000)"
fill="#000000" stroke="none">
<path d="M19979 13906 c-2 -2 -31 -7 -64 -10 -104 -11 -139 -16 -190 -26 -27
-6 -61 -12 -74 -15 -156 -29 -527 -165 -539 -196 -2 -5 -7 -7 -11 -4 -5 2 -41
-16 -80 -40 -40 -25 -75 -45 -78 -45 -5 0 -53 -33 -143 -98 -152 -109 -404
-351 -498 -477 -4 -5 -21 -28 -38 -50 -50 -66 -119 -167 -145 -215 -13 -25
-26 -47 -29 -50 -12 -11 -110 -221 -139 -295 -27 -71 -75 -227 -87 -280 -17
-81 -36 -188 -40 -230 -3 -27 -7 -61 -10 -75 -3 -14 -7 -146 -10 -295 -2 -148
-6 -275 -8 -282 -3 -7 -1 -15 5 -18 5 -4 7 -10 5 -14 -6 -10 -7 -60 -5 -268 0
-94 -2 -176 -5 -182 -4 -5 -2 -12 4 -16 6 -4 8 -10 6 -14 -6 -10 -7 -60 -5
-268 0 -94 -2 -176 -5 -182 -4 -5 -2 -12 4 -16 6 -4 8 -10 6 -14 -6 -10 -7
-60 -5 -268 0 -94 -2 -176 -5 -182 -4 -5 -2 -12 4 -16 6 -4 8 -10 6 -14 -6
-10 -7 -60 -5 -268 0 -94 -2 -176 -5 -182 -4 -5 -2 -12 4 -16 6 -4 8 -10 6
-14 -11 -17 -5 -170 9 -241 11 -55 69 -152 123 -207 48 -49 126 -100 167 -110
6 -1 28 -7 50 -13 44 -11 199 -15 215 -5 6 4 23 9 38 11 98 18 224 124 274
230 16 35 31 70 32 79 1 8 5 17 9 21 3 4 7 583 7 1288 1 1279 2 1336 15 1418
4 24 9 57 11 73 3 17 7 38 10 47 3 9 7 25 9 35 24 117 126 337 207 448 69 95
214 250 314 335 59 51 261 174 304 185 3 1 14 5 25 10 71 29 92 36 157 54 40
11 93 23 118 26 25 4 65 10 90 15 49 9 379 6 420 -4 14 -3 39 -9 55 -11 200
-36 456 -156 613 -289 270 -228 445 -506 508 -805 8 -42 18 -85 22 -96 3 -11
7 -380 9 -820 7 -1813 8 -1912 19 -1926 6 -8 16 -33 24 -56 7 -24 17 -43 21
-43 4 0 10 -9 14 -20 8 -26 133 -150 151 -150 8 0 14 -3 14 -8 0 -22 130 -58
221 -61 81 -3 147 13 224 53 62 32 175 137 175 161 0 8 3 15 8 15 10 0 29 45
47 117 14 55 15 209 12 1415 -1 744 -6 1364 -9 1378 -4 14 -9 45 -13 70 -3 25
-8 59 -10 75 -3 17 -10 55 -16 85 -15 73 -15 73 -22 90 -3 8 -9 29 -13 45 -7
28 -9 38 -17 68 -2 6 -7 19 -10 27 -3 8 -13 36 -21 63 -23 70 -63 163 -104
242 -19 39 -42 84 -51 100 -15 31 -160 256 -170 265 -3 3 -24 28 -46 55 -69
87 -87 107 -211 230 -179 179 -376 321 -592 429 -234 117 -456 187 -712 222
-24 3 -56 8 -70 11 -30 5 -476 13 -481 9z"/>
<path d="M13697 13824 c-1 -1 -45 -5 -97 -9 -114 -9 -124 -10 -175 -18 -22 -4
-56 -9 -75 -11 -76 -11 -328 -77 -360 -94 -8 -5 -43 -17 -77 -27 -35 -10 -63
-22 -63 -27 0 -4 -5 -8 -11 -8 -20 0 -257 -114 -269 -130 -3 -3 -13 -9 -22
-13 -23 -8 -157 -97 -182 -119 -11 -10 -24 -18 -29 -18 -4 0 -15 -6 -22 -12
-20 -18 -36 -31 -102 -85 -123 -99 -242 -217 -398 -397 -66 -75 -205 -281
-250 -368 -17 -32 -33 -58 -37 -58 -5 0 -8 -5 -8 -11 0 -6 -18 -49 -40 -95
-22 -47 -40 -86 -40 -88 0 -2 -8 -21 -17 -42 -9 -22 -18 -43 -19 -49 -1 -5
-14 -46 -28 -90 -28 -83 -51 -166 -66 -238 -4 -23 -10 -51 -13 -62 -3 -11 -8
-45 -12 -75 -4 -30 -9 -62 -10 -71 -20 -106 -27 -487 -11 -634 13 -133 16
-150 38 -255 6 -30 12 -62 13 -70 7 -49 67 -253 91 -307 8 -17 14 -37 14 -43
0 -33 167 -349 246 -466 82 -121 105 -151 189 -252 37 -45 260 -268 300 -302
320 -266 587 -410 960 -519 62 -18 205 -48 259 -56 27 -3 52 -8 55 -10 18 -10
184 -19 386 -19 241 -1 313 4 460 29 17 3 46 8 65 11 67 11 228 54 316 85 49
17 95 31 102 32 6 0 12 4 12 9 0 4 3 7 8 6 4 -1 20 4 35 10 104 43 135 58 160
74 15 11 27 16 27 12 0 -3 6 -2 13 4 6 5 35 22 62 37 57 31 262 166 292 193
11 9 36 28 54 42 139 101 201 226 195 395 -2 78 -7 99 -36 159 -37 79 -132
182 -195 214 -100 50 -240 61 -347 27 -34 -11 -87 -41 -130 -73 -104 -79 -247
-171 -274 -178 -13 -3 -24 -10 -24 -14 0 -4 -44 -26 -97 -49 -119 -49 -183
-72 -183 -64 0 3 -6 1 -12 -4 -7 -6 -31 -14 -53 -18 -22 -5 -42 -9 -45 -10
-179 -48 -507 -55 -725 -15 -71 13 -172 38 -200 50 -11 5 -31 12 -45 15 -85
23 -318 145 -397 209 -125 100 -353 317 -353 337 0 3 -10 17 -21 30 -45 51
-125 178 -169 269 -88 179 -135 344 -157 560 -7 66 -7 314 0 388 16 161 72
359 148 520 42 91 139 252 172 288 7 7 23 27 37 46 47 63 245 254 315 303 39
27 72 52 75 55 3 4 32 21 65 40 33 19 62 37 65 40 13 17 269 119 340 136 180
43 296 57 460 57 166 -1 257 -13 412 -53 138 -37 113 -29 233 -77 76 -32 229
-112 233 -124 2 -5 8 -9 13 -9 10 0 73 -42 154 -103 57 -43 223 -209 276 -277
61 -77 138 -201 186 -299 43 -89 118 -290 110 -297 -2 -2 -383 -4 -848 -5
-843 0 -844 -1 -910 -23 -150 -49 -261 -169 -296 -316 -15 -64 -11 -201 7
-245 72 -174 193 -277 355 -302 45 -7 2221 -7 2275 0 109 14 242 104 313 212
54 83 65 136 61 306 -2 84 -6 172 -8 194 -12 103 -15 126 -31 215 -9 52 -18
97 -21 101 -2 4 -6 24 -10 45 -3 22 -10 47 -15 57 -5 9 -8 17 -5 17 4 0 -40
133 -79 235 -28 74 -134 297 -146 305 -3 3 -14 21 -24 40 -45 88 -199 296
-315 425 -100 110 -317 315 -334 315 -4 0 -17 11 -29 23 -12 13 -35 32 -52 42
-16 11 -37 25 -45 32 -15 14 -108 74 -197 127 -45 28 -258 136 -267 136 -2 0
-21 7 -42 16 -22 9 -39 15 -39 13 0 -1 -10 3 -23 10 -13 7 -31 14 -40 16 -9 2
-37 12 -62 21 -25 9 -52 17 -60 19 -8 2 -49 12 -90 23 -65 17 -135 31 -230 46
-14 3 -25 5 -25 6 0 1 -20 3 -45 5 -25 2 -70 7 -100 10 -49 6 -367 14 -373 9z"/>
<path d="M395 13802 c-149 -27 -275 -123 -343 -262 l-37 -75 -2 -1310 c-1
-720 2 -1337 7 -1370 4 -33 11 -82 14 -110 7 -60 13 -95 26 -155 5 -25 12 -56
14 -70 51 -268 215 -608 425 -880 116 -150 352 -378 493 -476 29 -21 55 -40
58 -43 7 -9 143 -92 200 -122 25 -13 47 -27 48 -31 2 -5 10 -8 18 -8 13 0 52
-18 64 -30 3 -3 10 -6 15 -7 6 -1 44 -16 85 -33 137 -57 361 -121 474 -135 27
-3 52 -8 55 -9 32 -19 500 -29 631 -14 106 12 185 24 185 28 0 1 11 3 25 4 14
2 41 7 60 11 19 5 37 9 40 10 3 1 21 5 40 9 92 20 406 137 445 166 6 4 46 26
90 50 93 49 234 145 343 233 66 53 275 255 338 328 67 78 176 231 251 354 51
83 201 425 187 425 -3 0 0 9 6 21 6 11 13 28 15 37 1 9 8 37 15 62 12 43 14
54 25 103 4 19 12 61 20 107 2 9 6 43 10 75 4 33 9 69 12 80 2 11 6 107 8 213
2 106 7 197 10 202 3 5 1 11 -5 15 -6 4 -8 10 -6 14 6 9 7 67 5 187 -1 50 1
96 5 102 3 6 2 13 -4 17 -6 4 -8 10 -6 14 3 4 5 27 6 52 1 37 1 565 1 594 0 6
-1 31 -2 57 -1 27 1 51 4 54 3 4 2 14 -3 24 -5 10 -7 19 -5 21 4 5 6 67 4 139
0 25 0 50 1 55 1 6 2 14 1 19 -5 26 -2 546 3 555 4 5 2 12 -4 16 -6 4 -8 10
-6 14 14 22 3 280 -14 346 -36 135 -197 289 -335 320 -231 53 -462 -70 -554
-295 -16 -37 -17 -111 -24 -1880 -3 -685 -6 -806 -22 -860 -2 -8 -7 -31 -10
-50 -12 -70 -73 -243 -114 -324 -22 -42 -93 -160 -101 -166 -3 -3 -21 -26 -38
-52 -60 -88 -334 -348 -366 -348 -4 0 -16 -9 -28 -19 -32 -31 -234 -126 -328
-156 -147 -46 -276 -63 -455 -60 -203 4 -251 10 -395 52 -168 48 -362 150
-486 255 -43 37 -210 203 -235 234 -44 56 -113 161 -148 226 -41 77 -106 243
-114 293 -3 17 -8 37 -11 45 -3 8 -7 31 -10 50 -3 19 -8 46 -11 60 -12 59 -14
226 -15 1385 -2 1340 1 1277 -63 1383 -41 68 -118 145 -185 183 -83 47 -203
68 -297 51z"/>
<path d="M6335 13770 c-27 -10 -53 -15 -57 -13 -5 2 -8 0 -8 -4 0 -5 -16 -17
-36 -28 -31 -17 -64 -49 -116 -113 -10 -12 -16 -22 -13 -22 2 0 -3 -17 -12
-37 -22 -52 -26 -205 -8 -268 22 -74 69 -163 116 -220 52 -64 121 -145 134
-159 6 -6 30 -36 55 -66 25 -30 50 -59 56 -65 6 -5 30 -35 55 -65 24 -30 49
-59 55 -65 6 -5 58 -66 115 -135 57 -69 109 -130 115 -136 5 -6 26 -31 45 -54
18 -24 43 -53 54 -65 41 -47 72 -83 145 -170 41 -50 77 -92 80 -95 3 -3 28
-32 55 -65 28 -33 58 -69 68 -80 10 -11 28 -33 40 -48 12 -15 33 -40 47 -55
14 -15 43 -50 65 -77 22 -28 45 -54 51 -60 10 -9 88 -102 130 -154 10 -13 24
-28 29 -35 6 -6 35 -40 65 -76 30 -35 61 -71 68 -78 6 -7 12 -15 12 -18 0 -5
-107 -142 -162 -206 -13 -14 -32 -39 -43 -54 -11 -15 -24 -32 -30 -38 -5 -6
-23 -29 -39 -51 -17 -22 -33 -42 -36 -45 -3 -3 -60 -72 -125 -155 -66 -82
-122 -152 -125 -155 -3 -3 -18 -23 -35 -45 -16 -21 -36 -47 -45 -56 -8 -9 -27
-31 -41 -50 -30 -38 -203 -256 -222 -279 -6 -8 -109 -137 -227 -285 -118 -149
-217 -272 -220 -275 -3 -3 -30 -36 -60 -75 -30 -38 -58 -71 -62 -73 -5 -2 -8
-8 -8 -14 0 -5 -8 -22 -18 -36 -44 -64 -65 -143 -67 -257 -2 -134 32 -215 121
-294 93 -82 199 -108 357 -87 48 6 143 44 173 69 38 30 92 85 119 121 17 21
37 46 45 56 8 9 26 32 40 50 14 18 30 38 35 44 6 6 22 27 35 46 13 19 27 37
31 40 4 3 55 66 113 140 59 74 119 151 135 170 16 19 51 64 80 100 28 36 62
79 75 95 14 17 75 93 136 170 61 77 116 147 123 155 7 8 28 35 47 60 87 111
168 212 195 243 14 15 25 31 25 36 0 5 3 11 8 13 4 2 23 23 42 48 19 25 42 54
52 65 64 77 128 161 128 168 0 28 44 -12 146 -135 65 -79 125 -150 133 -159 9
-9 23 -25 31 -35 35 -44 197 -238 215 -258 6 -6 30 -36 55 -66 25 -30 47 -57
50 -60 3 -3 39 -45 80 -95 41 -49 77 -92 80 -95 3 -3 24 -27 45 -55 22 -27 47
-57 55 -65 9 -8 31 -35 50 -60 19 -25 41 -52 50 -60 8 -8 33 -37 55 -65 21
-27 42 -52 45 -55 3 -3 39 -45 80 -95 41 -49 80 -95 85 -101 6 -6 26 -30 45
-54 19 -24 40 -48 45 -54 6 -6 51 -61 102 -121 110 -132 160 -171 245 -191 65
-16 187 -21 238 -10 54 11 140 47 140 58 0 4 5 8 10 8 22 0 101 94 132 158 30
61 33 74 33 162 -1 76 -5 107 -24 155 -24 58 -82 149 -136 210 -15 17 -43 50
-63 74 -21 24 -42 49 -47 55 -6 6 -30 36 -55 66 -25 30 -55 66 -66 80 -65 76
-103 121 -134 160 -19 24 -40 48 -45 54 -9 10 -78 92 -130 154 -11 14 -25 30
-30 36 -6 6 -30 36 -55 66 -25 30 -47 57 -50 60 -4 4 -438 522 -475 568 -5 7
-21 25 -35 41 -14 16 -41 49 -60 72 -19 23 -39 47 -45 53 -5 6 -42 50 -82 97
l-71 86 95 124 c52 68 104 137 116 153 12 16 30 37 40 47 9 11 17 22 17 26 0
3 7 13 15 22 34 37 65 80 65 92 0 7 3 9 6 6 4 -4 20 13 35 37 16 23 39 54 51
67 13 14 35 43 51 65 15 23 35 49 45 60 9 11 66 85 127 164 60 80 113 150 117
155 5 6 38 48 74 95 35 47 70 92 77 100 7 9 34 45 62 80 27 36 55 71 62 78 7
7 13 17 13 21 0 4 8 16 18 27 9 10 36 44 59 74 23 30 78 102 123 160 119 154
179 239 207 293 45 89 69 253 50 348 -8 39 -48 129 -58 129 -5 0 -9 6 -9 12 0
18 -87 96 -135 120 -145 75 -361 53 -477 -50 -16 -15 -82 -97 -146 -182 -63
-85 -121 -160 -129 -166 -7 -6 -13 -14 -13 -17 0 -9 -153 -211 -162 -215 -4
-2 -8 -9 -8 -14 0 -6 -7 -18 -15 -27 -42 -46 -53 -59 -56 -67 -9 -22 -103
-144 -111 -144 -4 0 -8 -6 -8 -13 0 -7 -11 -24 -25 -39 -14 -15 -25 -32 -25
-37 0 -6 -6 -14 -13 -18 -8 -4 -22 -21 -33 -38 -10 -16 -24 -36 -31 -43 -7 -7
-31 -39 -54 -72 -23 -33 -46 -60 -50 -60 -5 0 -9 -4 -9 -10 0 -11 -90 -133
-102 -138 -5 -2 -8 -8 -8 -13 0 -8 -20 -35 -47 -64 -7 -8 -13 -18 -13 -23 0
-6 -4 -12 -8 -14 -4 -1 -82 -102 -172 -223 -91 -121 -170 -225 -176 -232 -8
-8 -17 -4 -35 19 -13 16 -32 39 -43 51 -10 12 -35 42 -55 67 -20 25 -45 54
-56 65 -11 12 -33 38 -50 59 -16 22 -35 44 -40 50 -6 6 -44 52 -85 101 -41 50
-79 95 -85 101 -5 7 -24 29 -42 50 -17 22 -39 49 -50 60 -10 12 -34 41 -53 64
-19 23 -42 50 -50 60 -8 10 -33 39 -55 66 -117 141 -271 324 -305 364 -21 25
-125 149 -230 275 -106 127 -210 253 -233 280 -83 100 -174 180 -217 190 -3 1
-18 7 -35 14 -49 21 -65 23 -165 25 -67 2 -110 -3 -145 -14z"/>
</g>
</svg>
