<?xml version="1.0" encoding="utf-8"?>
<!-- Generator: Adobe Illustrator 16.0.0, SVG Export Plug-In . SVG Version: 6.00 Build 0)  -->
<!DOCTYPE svg PUBLIC "-//W3C//DTD SVG 1.1//EN" "http://www.w3.org/Graphics/SVG/1.1/DTD/svg11.dtd">
<svg version="1.1" xmlns="http://www.w3.org/2000/svg" xmlns:xlink="http://www.w3.org/1999/xlink" x="0px" y="0px"
	 width="178.75px" height="100.404px" viewBox="0 0 178.75 100.404" enable-background="new 0 0 178.75 100.404"
	 xml:space="preserve">
<g id="Layer_2">
</g>
<g id="Layer_3">
</g>
<g id="Layer_1">
	<path fill-rule="evenodd" clip-rule="evenodd" fill="#646464" d="M178.75,0H27.383L0,27.763v72.641h151.747l27.003-25.862V0z
		 M46.151,76.447c-13.796,0-24.98-11.184-24.98-24.979s11.185-24.979,24.98-24.979c7.848,0,14.843,3.626,19.421,9.287l-9.003,7.823
		c-2.389-3.17-6.148-5.25-10.424-5.25c-7.229,0-13.09,5.86-13.09,13.089s5.86,13.09,13.09,13.09c4.601,0,8.631-2.386,10.965-5.977
		l9.579,7.116C62.181,72.176,54.668,76.447,46.151,76.447z M89.272,77.304c-10.756,0-18.913-10.269-18.913-10.269l7.855-6.878
		c0,0,5.597,5.837,12.18,5.837c3.042,0,6.325-1.695,6.325-4.44c0-4.184-4.427-4.307-9.323-5.327
		c-11.416-2.38-15.141-8.742-15.141-15.207c0-7.734,6.951-14.874,18.471-14.874c12.313,0,17.284,8.563,17.284,8.563l-6.597,5.861
		c0,0-4.158-4.647-10.651-4.152c-3.793,0.288-6.5,1.985-6.5,4.693c0,2.662,1.527,4.856,9.296,5.923
		c11.322,1.554,15.593,8.593,15.593,15.059C109.151,68.557,102.584,77.304,89.272,77.304z M138.568,76.447
		c-13.796,0-24.979-11.184-24.979-24.979s11.184-24.979,24.979-24.979c7.849,0,14.843,3.626,19.422,9.287l-9.003,7.823
		c-2.389-3.17-6.149-5.25-10.425-5.25c-7.229,0-13.09,5.86-13.09,13.089s5.86,13.09,13.09,13.09c4.601,0,8.632-2.386,10.965-5.977
		l9.58,7.116C154.599,72.176,147.086,76.447,138.568,76.447z"/>
</g>
</svg>
