<?xml version="1.0" encoding="utf-8"?>
<!-- Generator: Adobe Illustrator 16.0.0, SVG Export Plug-In . SVG Version: 6.00 Build 0)  -->
<!DOCTYPE svg PUBLIC "-//W3C//DTD SVG 1.1//EN" "http://www.w3.org/Graphics/SVG/1.1/DTD/svg11.dtd">
<svg version="1.1" id="Layer_1" xmlns="http://www.w3.org/2000/svg" xmlns:xlink="http://www.w3.org/1999/xlink" x="0px" y="0px"
	 width="583.118px" height="136.267px" viewBox="14.441 327.896 583.118 136.267"
	 enable-background="new 14.441 327.896 583.118 136.267" xml:space="preserve">
<path fill="#000000" d="M59.137,333.081c0.344,0.344,0.344,1.031,0.344,1.375l-1.719,2.063c0,0.344-0.344,0.344-0.688,0.344
	s-0.688,0-0.688-0.344c-3.438-2.75-7.564-4.126-11.69-4.126l0,0c-9.283,0-16.159,7.908-16.159,18.223v7.908h22.004
	c0.688,0,1.032,0.344,1.032,1.032v2.75c0,0.688-0.345,1.031-1.032,1.031H28.194v66.701c0,0.688-0.344,1.031-1.032,1.031h-2.75
	c-0.688,0-1.031-0.344-1.031-1.031v-66.701h-7.908c-0.688,0-1.031-0.344-1.031-1.031v-2.75c0-0.688,0.344-1.032,1.031-1.032h7.908
	v-7.564c0-13.065,9.283-23.036,20.629-23.036h0.344C49.51,327.924,55.011,329.986,59.137,333.081z M81.142,327.924h-2.751
	c-0.688,0-1.031,0.344-1.031,1.031v101.083c0,0.688,0.344,1.031,1.031,1.031h2.751c0.688,0,1.031-0.344,1.031-1.031V328.611
	C82.173,328.268,81.829,327.924,81.142,327.924z M169.503,394.625c0,0.688-0.344,1.032-1.031,1.032h-63.263
	c0.344,18.223,12.721,30.6,30.6,30.6c9.971,0,18.566-3.438,24.411-9.971c0.344-0.344,0.344-0.344,0.688-0.344s0.688,0,0.688,0.344
	l2.063,2.063c0.344,0.345,0.344,1.032,0,1.376c-6.876,7.22-16.503,11.346-27.85,11.346c-20.285,0-35.069-15.128-35.069-36.101
	c0-20.973,14.784-36.102,35.069-36.102C155.75,358.523,169.503,373.308,169.503,394.625z M105.209,390.843h59.48
	c-1.719-16.847-13.065-27.85-29.225-27.85S106.928,374.339,105.209,390.843z M255.802,394.625c0,0.688-0.344,1.032-1.031,1.032
	h-63.263c0.344,18.223,12.721,30.6,30.6,30.6c9.971,0,18.566-3.438,24.411-9.971c0.344-0.344,0.344-0.344,0.688-0.344
	s0.688,0,0.688,0.344l2.063,2.063c0.344,0.345,0.344,1.032,0,1.376c-6.876,7.22-16.503,11.346-27.85,11.346
	c-20.285,0-35.069-15.128-35.069-36.101c0-20.973,14.784-36.102,35.069-36.102C242.049,358.523,255.802,373.308,255.802,394.625z
	 M191.852,390.843h59.48c-1.719-16.847-13.064-27.85-29.225-27.85C205.605,362.993,193.227,374.339,191.852,390.843z
	 M499.227,382.935l0.344,47.103c0,0.344,0,0.344-0.344,0.688s-0.344,0.344-0.688,0.344h-2.751c-0.688,0-1.031-0.344-1.031-1.031
	v-12.722c-6.188,8.939-16.159,13.753-28.881,13.753c-14.097,0-24.067-8.595-24.067-21.316c0-11.69,10.314-19.254,27.506-19.254
	h25.442v-7.564c0-13.065-7.564-19.598-21.661-19.598c-8.251,0-15.815,3.095-24.411,9.627c-0.344,0-0.344,0.344-0.688,0.344
	s-0.344,0-0.688-0.344l-1.719-2.063c-0.344-0.344-0.344-1.032,0-1.375c9.283-7.22,17.878-10.659,27.161-10.659
	C489.256,358.523,498.883,367.807,499.227,382.935z M494.413,395.313h-25.442c-14.44,0-22.692,5.157-22.692,14.44
	c0,9.971,7.907,16.503,19.598,16.503c14.097,0,23.724-6.188,28.537-18.566V395.313z M544.954,419.036l-24.067-59.825
	c0-0.344-0.344-0.688-1.031-0.688h-3.094c-0.344,0-0.688,0-0.688,0.344c-0.344,0.344-0.344,0.688,0,1.032l24.756,60.856v0.344
	c0,0.344,0.688,2.407,0.688,4.126v5.157c0,0.344,0.344,1.031,0.688,1.031l0,0c0.344,0,0.688-0.344,1.031-0.688l1.719-4.813
	C546.33,422.818,545.299,420.411,544.954,419.036z M431.838,358.523h-3.095c-0.344,0-0.688,0.344-1.031,0.688l-24.411,64.982
	l-24.755-64.982c0-0.344-0.344-0.688-1.032-0.688h-3.438c-0.344,0-0.688,0.344-1.032,0.688l-24.411,64.982l-23.035-60.513
	c0-0.344-1.72-5.157-6.189-5.157H282.62v-14.44c0-0.688-0.344-1.031-1.031-1.031h-2.751c-0.688,0-1.031,0.344-1.031,1.031v14.44
	h-9.627c-0.688,0-1.031,0.344-1.031,1.032v2.75c0,0.688,0.344,1.031,1.031,1.031h9.627v47.104c0,16.848,8.596,20.285,15.815,20.285
	h0.344c5.157,0,10.314-2.063,14.44-5.157c0.344-0.344,0.344-1.031,0.344-1.375l-1.719-2.063c0-0.344-0.344-0.344-0.688-0.344
	c-0.345,0-0.688,0-0.688,0.344c-3.438,2.751-7.563,4.126-11.689,4.126h-0.344c-3.438,0-6.532-1.375-8.252-3.781
	c-2.063-2.751-2.75-6.533-2.75-11.69v-47.447h36.444c0,0,1.375,0,2.063,1.032l25.442,66.013c0,0.344,0.344,0.688,1.031,0.688h3.095
	c0.344,0,0.688-0.344,1.031-0.688l24.755-64.294l24.411,64.294c0,0.344,0.344,0.688,1.032,0.688h3.094
	c0.344,0,0.688-0.344,1.031-0.688l27.162-70.483c0-0.344,0-0.688,0-1.032C433.213,358.523,432.182,358.523,431.838,358.523z"/>
<path fill="#000000" d="M596.871,346.146l0.688-1.375l-6.188-9.627c0,0,1.375-3.438,2.063-4.813
	c0.688-1.375-0.344-2.063-0.688-2.407l0,0l0,0c-0.345,0-1.376-0.344-2.063,1.375s-2.063,4.813-2.063,4.813l-11.003,3.094
	l-0.688,1.375l9.627,0.688l-2.063,4.813l-3.095,1.375l-0.344,1.375l4.126-0.344l2.75,3.095l0.345-1.375l-1.032-3.094l2.063-4.813
	L596.871,346.146z"/>
<path fill="#B8B8B8" d="M580.712,350.959l-2.751,6.189l-18.91,46.416l-8.938,23.035l-4.813,11.69
	c-1.376,3.782-3.438,7.22-5.846,9.971c-5.157,5.845-12.377,9.971-19.941,10.658c-3.782,0.344-7.908,0.344-12.033,0.344h-12.378
	h-49.854H244.8c-0.688,0-45.385,0.344-94.551,0.688c-49.51,0.344-103.489,1.032-123.775,1.032c-1.719,0-2.75,0-2.75,0.344v0.688
	c0,0,1.031,0,2.75,0.344c19.941,0.344,74.266,0.688,123.775,1.031c49.166,0.344,93.863,0.688,94.551,0.688h200.104h49.854h12.378
	c4.125,0,8.251,0.344,12.721-0.344c8.939-1.031,17.191-5.501,23.036-12.377c2.751-3.438,5.157-7.564,6.532-11.347l4.813-11.689
	l9.283-23.036l18.91-46.416l2.751-6.188c0.344-0.344,0-1.031-0.688-1.375l-2.407-1.031
	C581.743,350.272,581.056,350.272,580.712,350.959z"/>
</svg>
