<?xml version="1.0" encoding="utf-8"?>
<!-- Generator: Adobe Illustrator 16.0.0, SVG Export Plug-In . SVG Version: 6.00 Build 0)  -->
<!DOCTYPE svg PUBLIC "-//W3C//DTD SVG 1.1//EN" "http://www.w3.org/Graphics/SVG/1.1/DTD/svg11.dtd">
<svg version="1.1" id="Layer_1" xmlns="http://www.w3.org/2000/svg" xmlns:xlink="http://www.w3.org/1999/xlink" x="0px" y="0px"
	 width="510.236px" height="170.085px" viewBox="0 0 510.236 170.085" enable-background="new 0 0 510.236 170.085"
	 xml:space="preserve">
<g>
	<path fill="#4C4C4C" d="M143.12,71.623c-5.89,0-10.767,2.412-13.827,6.521c-2.794,3.751-4.505,8.98-3.644,15.663l31.402-13.027
		C154.512,75.322,149.598,71.623,143.12,71.623z"/>
	<path fill="#4C4C4C" d="M291.031,72.723c-10.04,0-17.323,7.608-17.323,18.432c0,10.332,7.719,18.428,17.566,18.428
		c10.04,0,17.328-7.817,17.328-18.428C308.602,80.819,300.882,72.723,291.031,72.723z"/>
	<path fill="#4C4C4C" d="M429.427,72.723c-10.038,0-17.326,7.608-17.326,18.432c0,10.332,7.721,18.428,17.569,18.428
		c10.04,0,17.326-7.817,17.326-18.428C446.997,80.819,439.278,72.723,429.427,72.723z"/>
	<path fill="#4C4C4C" d="M0,0v170.085h510.236V0H0z M106.411,123.882H47.337V38.845h18.218v68.532h40.856V123.882z M145.04,110.693
		c6.898,0,11.221-1.339,18.787-6.937l11.367,8.738c-5.818,6.734-18.256,12.5-30.42,12.5c-21.712,0-36.649-14.079-36.649-33.835
		c0-19.257,14.904-33.84,34.67-33.84c10.88,0,19.818,3.709,25.854,10.724c4.15,4.824,6.846,11.169,7.848,18.275l-45.954,19.064
		C133.971,108.765,138.83,110.693,145.04,110.693z M248.86,123.882h-17.976V86.635c0-8.659-7.695-13.83-15.134-13.83
		c-9.623,0-14.82,7.125-14.82,13.83v37.247h-17.974V58.418h17.979l-0.005,9.384l0.005-0.005l-0.005,0.012
		c5.238-6.993,13.81-10.486,21.345-10.486c15.814,0,26.585,10.927,26.585,25.979V123.882z M291.031,124.986
		c-19.658,0-35.06-14.646-35.06-33.832c0-18.973,15.507-33.835,35.303-33.835c19.657,0,35.06,14.645,35.06,33.835
		C326.333,110.121,310.826,124.986,291.031,124.986z M350.519,123.862l-26.934-65.438h20.53l16.253,44.591l16.25-44.591h20.532
		l-26.935,65.438H350.519z M429.427,124.986c-19.661,0-35.062-14.646-35.062-33.832c0-18.973,15.509-33.835,35.305-33.835
		c19.657,0,35.058,14.645,35.058,33.835C464.728,110.121,449.222,124.986,429.427,124.986z M471.896,116.11h-2.908v7.771h-1.806
		v-7.771h-2.905v-1.652h7.619V116.11z M483.402,123.881h-1.744v-6.7l-2.907,4.528h-0.187l-2.905-4.528v6.7h-1.743v-9.423h1.926
		l2.848,4.466l2.845-4.466h1.868V123.881z"/>
</g>
</svg>
