<?xml version="1.0" encoding="utf-8"?>
<!-- Generator: Adobe Illustrator 16.0.0, SVG Export Plug-In . SVG Version: 6.00 Build 0)  -->
<!DOCTYPE svg PUBLIC "-//W3C//DTD SVG 1.1//EN" "http://www.w3.org/Graphics/SVG/1.1/DTD/svg11.dtd">
<svg version="1.1" id="Layer_1" xmlns="http://www.w3.org/2000/svg" xmlns:xlink="http://www.w3.org/1999/xlink" x="0px" y="0px"
	 width="165.732px" height="78.933px" viewBox="0 0 165.732 78.933" enable-background="new 0 0 165.732 78.933"
	 xml:space="preserve">
<path fill-rule="evenodd" clip-rule="evenodd" fill="#2A2A2A" d="M39.467,0C17.67,0,0,17.67,0,39.466
	c0,21.797,17.67,39.467,39.467,39.467c21.797,0,39.467-17.67,39.467-39.467C78.934,17.67,61.264,0,39.467,0z M49.078,53.354v3.029
	h-8.174v0.021h-3.03V22.466h3.03v30.888H49.078z M39.467,72.505c-18.246,0-33.038-14.791-33.038-33.039
	c0-18.246,14.792-33.038,33.038-33.038c0.482,0,0.961,0.01,1.438,0.031l-0.003,3.008c-0.476-0.022-0.954-0.033-1.434-0.033
	c-16.586,0-30.032,13.446-30.032,30.032c0,16.588,13.446,30.033,30.032,30.033c16.134,0,29.296-12.723,30.003-28.682l0.007-0.09
	H49.125v-3.028h23.334c0.031,0.586,0.046,1.173,0.046,1.767C72.505,57.714,57.713,72.505,39.467,72.505z M31.785,26.968
	c0,2.564-2.078,4.642-4.642,4.642c-2.564,0-4.642-2.078-4.642-4.642c0-2.563,2.078-4.641,4.642-4.641
	C29.707,22.327,31.785,24.405,31.785,26.968z"/>
<g>
	<polygon fill-rule="evenodd" clip-rule="evenodd" fill="#666666" points="108.888,50.323 108.888,49.497 108.888,19.823 
		98.531,19.823 98.531,58.839 126.731,58.839 126.731,50.323 109.711,50.323 	"/>
	<path fill-rule="evenodd" clip-rule="evenodd" fill="#666666" d="M148.563,36.803v6.895h6.908h0.995c0,0,0.076,8.68-8.08,8.68
		c-2.071,0-3.918-0.752-5.339-2.172c-2.213-2.213-3.381-5.936-3.381-10.768c0-8,3.18-12.775,8.504-12.775
		c3.325,0,5.824,2.042,6.466,5.137h10.984c-0.57-4.497-1.804-6.841-4.814-9.229c-3.235-2.505-7.396-3.775-12.365-3.775
		c-5.899,0-10.828,1.811-14.254,5.236c-3.578,3.579-5.471,8.851-5.471,15.245c0,6.832,2.002,12.598,5.637,16.23
		c2.852,2.852,6.656,4.359,11.006,4.359c9.551,0,11.749-5.725,11.749-5.725v2.631v2.066h8.624V36.803H148.563z"/>
</g>
</svg>
