<?xml version="1.0" encoding="utf-8"?>
<!-- Generator: Adobe Illustrator 16.0.0, SVG Export Plug-In . SVG Version: 6.00 Build 0)  -->
<!DOCTYPE svg PUBLIC "-//W3C//DTD SVG 1.1//EN" "http://www.w3.org/Graphics/SVG/1.1/DTD/svg11.dtd">
<svg version="1.1" id="Layer_1" xmlns="http://www.w3.org/2000/svg" xmlns:xlink="http://www.w3.org/1999/xlink" x="0px" y="0px"
	 width="202.522px" height="46.697px" viewBox="3.738 0.852 202.522 46.697" enable-background="new 3.738 0.852 202.522 46.697"
	 xml:space="preserve">
<path fill="#4A4A4A" d="M27.666,47.55c3.474,0,7.044-0.676,10.131-2.123c3.185-1.446,5.886-3.377,8.105-5.979
	c1.833-2.027,3.184-4.344,4.148-6.854c0.965-2.604,1.448-5.207,1.448-8.006c0-3.667-0.771-7.044-2.316-10.131
	c-1.543-3.088-3.859-5.79-6.851-8.201c-2.218-1.736-4.631-2.99-7.236-3.956c-3.184-1.157-5.692-1.352-7.526-1.352
	c-2.509,0-5.018,0.482-7.526,1.352c-2.605,0.966-5.017,2.22-7.236,3.956c-2.894,2.316-5.21,5.019-6.754,8.105
	c-1.543,3.086-2.315,6.463-2.315,10.13c0,2.796,0.482,5.5,1.447,8.007c0.965,2.605,2.315,4.826,4.148,6.853
	c2.317,2.604,5.018,4.534,8.105,5.981C20.624,46.776,24.193,47.55,27.666,47.55 M38.473,40.893c-1.544,1.93-3.183,3.375-4.921,4.241
	c-1.736,0.869-3.666,1.354-5.981,1.354l0,0c-2.22,0-4.246-0.484-5.982-1.354c-1.737-0.866-3.377-2.312-4.921-4.241
	c-3.474-4.343-5.114-9.65-5.114-15.922c0-3.57,0.483-6.946,1.448-10.034s2.219-5.789,3.956-7.912c1.448-1.833,2.99-3.088,4.631-3.86
	c1.64-0.771,3.666-1.158,5.982-1.158l0,0c2.315,0,4.245,0.387,5.981,1.158c1.641,0.772,3.281,2.123,4.632,3.86
	c1.737,2.123,3.088,4.824,3.956,7.912c0.964,3.088,1.351,6.464,1.351,10.034C43.586,31.339,41.946,36.647,38.473,40.893z
	 M53.814,45.716c1.062-0.096,1.641-0.385,2.413-0.866c0.868-0.484,1.737-1.257,2.508-2.414c0.675-0.867,1.351-2.023,2.026-3.474
	c0.675-1.446,4.245-10.42,4.245-10.42l0.482-1.352L75.33,2.008h1.833l8.973,21.419c1.062,2.606,7.14,17.176,7.816,18.235
	c0.675,1.063,1.351,1.93,2.026,2.508c0.482,0.39,1.157,0.679,1.833,0.869c0.676,0.193,1.062,0.387,2.412,0.58v0.771H79.962V45.62
	c1.93-0.193,2.701-0.484,3.473-0.965c1.351-0.867,2.027-2.027,2.027-3.473c0-0.869-0.291-2.123-0.869-3.57l-0.579-1.353l-3.087-7.62
	H66.55l-2.509,6.366c-0.965,2.412-1.447,4.246-1.447,5.597c0,0.771,0.193,1.543,0.579,2.221c0.386,0.672,0.868,1.252,1.447,1.736
	c0.771,0.575,1.447,0.965,2.702,1.061v0.771H53.814V45.716 M73.497,10.594c-0.675,1.833-6.464,16.79-6.464,16.79h13.412
	l-6.851-16.79H73.497z M131.003,9.919c-0.387-1.06-0.965-2.123-1.545-3.087c-1.062-1.737-2.22-2.99-3.474-3.762
	c-1.252-0.772-2.797-1.254-4.438-1.254c-2.413,0-4.343,0.868-5.79,2.508c-0.578,0.676-1.061,1.448-1.35,2.413
	c-0.29,0.869-0.481,1.833-0.481,2.702c0,3.666,2.313,6.561,6.945,8.78l4.534,2.22c3.57,1.64,6.08,3.472,7.623,5.501
	c1.736,2.217,2.701,4.918,2.701,7.91c0,2.024-0.387,3.858-1.158,5.692c-1.156,2.508-2.797,4.438-5.113,5.885
	c-2.219,1.351-4.92,2.027-8.008,2.027c-2.799,0-5.5-0.58-8.104-1.641c-1.352-0.58-2.121-0.965-2.414-0.965
	c-0.289-0.097-0.576-0.097-0.867-0.097c-1.063,0-1.736,0.48-2.123,1.543h-0.481V34.042h0.578c0.869,3.377,2.026,4.92,3.282,6.947
	c2.314,3.666,5.306,5.5,8.875,5.5c2.509,0,4.537-0.869,6.176-2.51c1.641-1.642,2.412-3.763,2.412-6.367
	c0-1.062-0.193-2.221-0.578-3.379c-0.389-1.156-0.869-2.121-1.448-2.99c-0.677-0.867-1.544-1.639-2.604-2.41
	c-1.157-0.772-2.895-1.738-5.209-2.992c-2.026-1.062-3.668-1.931-4.729-2.605c-1.06-0.675-2.024-1.447-2.7-2.218
	c-1.834-2.026-2.798-4.536-2.798-7.431c0-1.833,0.386-3.568,1.062-5.209c0.771-1.641,1.736-3.088,3.088-4.343
	c2.314-2.123,5.017-3.183,8.201-3.183c1.062,0,1.93,0.096,2.799,0.29c0.869,0.192,2.025,0.577,3.473,1.254
	c1.063,0.386,1.833,0.676,2.219,0.869c0.387,0.097,0.772,0.191,1.063,0.191c0.771,0,1.255-0.578,1.544-1.64h0.772v11.771h-0.482
	C132.063,12.429,131.003,9.919,131.003,9.919z M147.309,46.391V45.62c1.254-0.096,1.641-0.193,2.412-0.484
	c0.771-0.286,1.446-0.771,2.026-1.348c0.868-0.869,1.351-2.027,1.543-3.57c0.099-1.157,0.194-2.51,0.194-3.957V16.674v-4.438
	c0-1.834-0.098-3.185-0.291-4.245c-0.192-1.061-0.481-1.833-0.868-2.509c-0.578-0.869-1.255-1.544-2.22-1.931
	c-0.867-0.386-1.447-0.675-2.99-0.771V2.008h19.201V2.78c-1.256,0.097-1.642,0.29-2.414,0.579c-0.771,0.289-1.446,0.771-2.024,1.351
	c-0.676,0.675-1.157,1.543-1.448,2.604c-0.19,1.062-0.385,2.703-0.385,4.921v4.438V36.26c0,2.22,0.098,3.859,0.385,4.923
	c0.193,1.061,0.676,1.928,1.448,2.604c0.578,0.674,1.254,1.062,2.024,1.348c0.772,0.291,1.158,0.484,2.414,0.484v0.771
	L147.309,46.391L147.309,46.391z M201.533,9.919c-0.387-1.06-0.965-2.123-1.543-3.087c-1.063-1.737-2.221-2.99-3.475-3.762
	c-1.256-0.772-2.799-1.254-4.438-1.254c-2.413,0-4.343,0.868-5.79,2.508c-0.578,0.676-1.063,1.448-1.352,2.413
	c-0.289,0.869-0.482,1.833-0.482,2.702c0,3.666,2.316,6.561,6.947,8.78l4.535,2.22c3.57,1.64,6.078,3.472,7.621,5.501
	c1.738,2.217,2.703,4.918,2.703,7.91c0,2.024-0.386,3.858-1.158,5.692c-1.158,2.508-2.799,4.438-5.113,5.885
	c-2.221,1.351-4.92,2.027-8.008,2.027c-2.799,0-5.5-0.58-8.105-1.641c-1.352-0.58-2.122-0.965-2.411-0.965
	c-0.289-0.097-0.58-0.097-0.868-0.097c-1.062,0-1.736,0.48-2.123,1.543h-0.481V34.042h0.579c0.867,3.377,2.025,4.92,3.279,6.947
	c2.315,3.666,5.305,5.5,8.877,5.5c2.51,0,4.533-0.869,6.174-2.51c1.643-1.642,2.414-3.763,2.414-6.367
	c0-1.062-0.193-2.221-0.58-3.379c-0.385-1.156-0.868-2.121-1.448-2.99c-0.673-0.867-1.542-1.639-2.603-2.41
	c-1.158-0.772-2.896-1.738-5.211-2.992c-2.027-1.062-3.666-1.931-4.729-2.605s-2.025-1.447-2.702-2.218
	c-1.833-2.026-2.798-4.536-2.798-7.431c0-1.833,0.387-3.568,1.063-5.209c0.771-1.641,1.735-3.088,3.088-4.343
	c2.314-2.123,5.018-3.183,8.201-3.183c1.061,0,1.93,0.096,2.797,0.29c0.867,0.192,2.026,0.577,3.474,1.254
	c1.062,0.386,1.833,0.676,2.221,0.869c0.386,0.097,0.771,0.191,1.062,0.191c0.771,0,1.254-0.578,1.543-1.64h0.771v11.771h-0.482
	C202.596,12.429,201.533,9.919,201.533,9.919z"/>
</svg>
