<?xml version="1.0" encoding="utf-8"?>
<!-- Generator: Adobe Illustrator 16.0.0, SVG Export Plug-In . SVG Version: 6.00 Build 0)  -->
<!DOCTYPE svg PUBLIC "-//W3C//DTD SVG 1.1//EN" "http://www.w3.org/Graphics/SVG/1.1/DTD/svg11.dtd">
<svg version="1.1" id="Layer_1" xmlns="http://www.w3.org/2000/svg" xmlns:xlink="http://www.w3.org/1999/xlink" x="0px" y="0px"
	 width="100px" height="20.713px" viewBox="0 0 100 20.713" enable-background="new 0 0 100 20.713" xml:space="preserve">
<g>
	<path fill="#181818" d="M21.588,8.333h-0.04V6.15h-1.603v10.356h1.703v-4.607c0-2.624,1.001-4.187,3.746-4.187V5.91
		C23.551,5.85,22.409,6.671,21.588,8.333z"/>
	<rect x="26.656" y="2.204" fill="#181818" width="1.703" height="2.083"/>
	<rect x="26.656" y="6.15" fill="#181818" width="1.703" height="10.356"/>
	<path fill="#181818" d="M37.332,7.632h-0.02C36.69,6.491,35.529,5.91,34.227,5.91c-3.585,0-4.788,3.025-4.788,5.469
		c0,2.824,1.542,5.248,4.627,5.248c1.302,0,2.664-0.621,3.225-1.883h0.04v0.681c0,2.323-0.881,3.926-3.105,3.926
		c-1.122,0-2.604-0.44-2.684-1.683H29.84c0.1,2.264,2.344,3.045,4.287,3.045c3.265,0,4.808-1.723,4.808-5.088V6.15h-1.603V7.632z
		 M34.167,15.124c-2.244,0-2.924-2.083-2.924-3.946c0-1.983,0.881-3.766,3.064-3.766c2.144,0,2.945,1.883,2.945,3.706
		C37.251,13.061,36.41,15.124,34.167,15.124z"/>
	<path fill="#181818" d="M45.404,5.91c-1.242,0-2.704,0.521-3.265,1.763h-0.04V2.204h-1.703v14.302h1.703v-5.849
		c0-1.863,1.002-3.245,3.065-3.245c1.302,0,2.104,0.821,2.104,2.083v7.011h1.703V9.696C48.97,7.472,48.129,5.91,45.404,5.91z"/>
	<path fill="#181818" d="M52.977,3.045h-1.702V6.15h-1.763v1.502h1.763v6.59c0,1.903,0.701,2.264,2.464,2.264h1.302v-1.502h-0.781
		c-1.062,0-1.282-0.14-1.282-0.921v-6.43h2.063V6.15h-2.063V3.045z"/>
	<path fill="#181818" d="M67.4,5.91c-1.322,0-2.544,0.661-3.245,1.763C63.734,6.411,62.573,5.91,61.31,5.91
		c-1.422,0-2.584,0.601-3.345,1.763h-0.04V6.15h-1.603v10.356h1.702v-6.45c0-0.781,0.741-2.644,2.765-2.644
		c1.522,0,1.943,0.961,1.943,2.304v6.791h1.702v-6.45c0-1.603,1.062-2.644,2.704-2.644c1.663,0,2.004,1.021,2.004,2.304v6.791h1.702
		V8.915C70.845,6.771,69.463,5.91,67.4,5.91z"/>
	<path fill="#181818" d="M76.757,5.91c-3.285,0-5.028,2.384-5.028,5.429c0,3.024,1.743,5.408,5.028,5.408s5.027-2.384,5.027-5.408
		C81.785,8.293,80.042,5.91,76.757,5.91z M76.757,15.244c-1.783,0-3.226-1.402-3.226-3.906c0-2.524,1.442-3.926,3.226-3.926
		c1.782,0,3.225,1.402,3.225,3.926C79.982,13.842,78.54,15.244,76.757,15.244z"/>
	<polygon fill="#181818" points="89.056,6.15 86.232,14.784 86.192,14.784 83.288,6.15 81.384,6.15 85.231,16.506 87.053,16.506 
		90.839,6.15 	"/>
	<path fill="#181818" d="M95.307,5.91c-2.825,0-4.868,2.284-4.868,5.389c0.101,3.165,1.663,5.448,4.968,5.448
		c2.324,0,3.967-1.242,4.427-3.525h-1.683c-0.3,1.342-1.281,2.023-2.684,2.023c-2.264,0-3.285-1.602-3.226-3.405h7.752
		C100.094,9.335,98.972,5.91,95.307,5.91z M92.242,10.336c0.12-1.583,1.182-2.924,2.965-2.924c1.683,0,2.904,1.302,2.984,2.924
		H92.242z"/>
</g>
<polygon fill-rule="evenodd" clip-rule="evenodd" fill="#878787" points="1.397,7.702 7.806,10.8 9.294,10.375 9.324,17.786 
	1.433,13.968 1.397,7.702 "/>
<polygon fill-rule="evenodd" clip-rule="evenodd" fill="#B8B8B8" points="0,6.548 5.103,0 12.999,4.118 7.897,10.344 0,6.548 "/>
<polygon fill-rule="evenodd" clip-rule="evenodd" fill="#B8B8B8" points="13.03,2.86 14.743,2.297 16.745,3.329 14.822,3.845 
	14.818,5.179 12.999,4.118 13.03,2.86 "/>
<polygon fill-rule="evenodd" clip-rule="evenodd" fill="#DCDCDC" points="10.486,10.096 13.166,6.712 15.927,8.608 14.718,8.959 
	14.697,16.349 11.656,17.217 11.635,9.771 10.486,10.096 "/>
</svg>
