<?xml version="1.0" encoding="utf-8"?>
<!-- Generator: Adobe Illustrator 16.0.0, SVG Export Plug-In . SVG Version: 6.00 Build 0)  -->
<!DOCTYPE svg PUBLIC "-//W3C//DTD SVG 1.1//EN" "http://www.w3.org/Graphics/SVG/1.1/DTD/svg11.dtd">
<svg version="1.1"
	 id="svg2" xmlns:dc="http://purl.org/dc/elements/1.1/" xmlns:cc="http://creativecommons.org/ns#" xmlns:rdf="http://www.w3.org/1999/02/22-rdf-syntax-ns#" xmlns:inkscape="http://www.inkscape.org/namespaces/inkscape" xmlns:svg="http://www.w3.org/2000/svg" xmlns:sodipodi="http://sodipodi.sourceforge.net/DTD/sodipodi-0.dtd" inkscape:version="0.48.1 " sodipodi:docname="AJAX.svg"
	 xmlns="http://www.w3.org/2000/svg" xmlns:xlink="http://www.w3.org/1999/xlink" x="0px" y="0px" width="279.256px"
	 height="55.981px" viewBox="-0.294 -0.317 279.256 55.981" enable-background="new -0.294 -0.317 279.256 55.981"
	 xml:space="preserve">
<sodipodi:namedview  inkscape:cy="-36.36577" inkscape:cx="194.47602" inkscape:zoom="2.5017672" fit-margin-left="0" fit-margin-top="0" showgrid="false" guidetolerance="10" gridtolerance="10" pagecolor="#ffffff" borderopacity="1" bordercolor="#666666" id="namedview42" objecttolerance="10" inkscape:current-layer="svg2" inkscape:window-maximized="1" inkscape:window-y="-8" inkscape:window-x="-8" fit-margin-bottom="0" fit-margin-right="0" inkscape:pageopacity="0" inkscape:window-height="1004" inkscape:pageshadow="2" inkscape:window-width="1280">
	</sodipodi:namedview>
<g>
	<path d="M82.676,20.419c-3.529,0-6.796-0.885-10.297-2.878l-1.647,3.684c3.992,2.214,7.47,3.155,11.918,3.155
		c7.5,0,11.243-3.155,11.243-7.243c0-9.874-18.224-6.158-18.224-10.785c0-1.617,2.041-2.514,6.127-2.514
		c2.795,0,5.936,0.831,8.87,2.107l1.67-3.52c-3.23-1.657-6.61-2.562-10.629-2.562c-6.716,0-10.43,2.745-10.43,6.736
		c0,9.252,18.23,5.475,18.23,10.536C89.508,19.104,87.123,20.419,82.676,20.419z"/>
	<path d="M110.982-0.3c-7.279,0-13.314,5.065-13.314,12.406c0,7.426,6.035,12.396,13.314,12.396c7.32,0,13.26-4.969,13.26-12.396
		C124.241,4.766,118.302-0.3,110.982-0.3z M110.982,20.541c-5.458,0-8.922-3.598-8.922-8.435c0-4.726,3.621-8.405,8.922-8.405
		c5.425,0,8.871,3.68,8.871,8.405C119.853,16.909,116.406,20.541,110.982,20.541z"/>
	<path d="M141.812,20.419c-5.604,0-9.104-3.51-9.104-8.344c0-4.694,3.468-8.309,9.049-8.309c3.512,0,6.149,1.211,8.257,2.869
		l2.254-3.436c-2.896-2.187-6.126-3.5-10.634-3.5c-7.561,0-13.411,5.067-13.411,12.377c0,7.435,5.761,12.397,13.411,12.397
		c4.508,0,7.918-1.248,10.821-3.436l-2.264-3.44C148.096,19.26,145.316,20.419,141.812,20.419z"/>
	<rect x="157.072" y="0.419" width="4.248" height="23.428"/>
	<polygon points="189.129,19.975 171.831,19.975 171.831,13.851 184.708,13.851 184.708,9.986 171.831,9.986 171.831,4.294 
		188.4,4.294 188.4,0.419 167.589,0.419 167.589,23.847 189.129,23.847 	"/>
	<polygon points="214.254,0.419 191.395,0.419 191.395,4.269 200.714,4.269 200.714,23.847 204.943,23.847 204.943,4.269 
		214.254,4.269 	"/>
	<polygon points="239.202,19.975 221.904,19.975 221.904,13.851 234.79,13.851 234.79,9.986 221.904,9.986 221.904,4.294 
		238.472,4.294 238.472,0.419 217.661,0.419 217.661,23.847 239.202,23.847 	"/>
	<path d="M90.323,50.158c-1.803,0.878-4.199,1.413-6.522,1.413c-5.599,0-9.104-3.464-9.104-8.312c0-4.679,3.464-8.367,9.04-8.249
		c3.51,0,6.158,1.132,8.272,2.788l2.252-3.438c-2.899-2.187-6.219-3.466-10.643-3.466c-7.552,0-13.401,5.056-13.401,12.364
		c0,7.439,5.763,12.399,13.401,12.399c3.938,0,7.924-1.218,10.823-3.217v-9.094h-4.119V50.158z"/>
	<polygon points="104.252,45.039 117.146,45.039 117.146,41.17 104.252,41.17 104.252,35.481 120.837,35.481 120.837,31.613 
		100.023,31.613 100.023,55.031 121.564,55.031 121.564,51.163 104.252,51.163 	"/>
	<path d="M144.775,37.729c0,3.474,0.033,7.065,0.283,11.503l-0.102,0.031l-14.902-17.65h-4.325v23.419h4.146v-6.115
		c0-1.972,0-8.028-0.164-11.496l0.067-0.035l14.848,17.646h4.291V31.613h-4.143V37.729z"/>
	<polygon points="159.113,45.039 172.002,45.039 172.002,41.17 159.113,41.17 159.113,35.481 175.69,35.481 175.69,31.613 
		154.883,31.613 154.883,55.031 176.43,55.031 176.43,51.163 159.113,51.163 	"/>
	<path d="M203.485,39.079c0-4.402-3.023-7.467-7.896-7.467h-14.686v23.419h4.238v-8.616h6.827l6.454,8.616h5.308l-6.801-8.742
		C200.516,45.756,203.485,43.26,203.485,39.079z M195.137,42.515h-9.995v-7.032h10.447c2.38,0,3.695,1.377,3.695,3.599
		c0,2.026-1.499,3.432-4.147,3.432V42.515z"/>
	<path d="M216.342,31.613l-11.134,23.419h4.586l2.62-5.686h12.329l2.63,5.686h4.568l-11.147-23.419H216.342z M214.179,45.543
		l4.415-9.491l4.387,9.491H214.179z"/>
	<polygon points="239.291,31.613 235.059,31.613 235.059,55.031 254.549,55.031 254.549,51.163 239.291,51.163 	"/>
	<polygon points="261.653,51.163 261.653,45.039 274.543,45.039 274.543,41.17 261.653,41.17 261.653,35.481 278.237,35.481 
		278.237,31.613 257.412,31.613 257.412,55.031 278.962,55.031 278.962,51.163 	"/>
</g>
<path id="rect36" inkscape:connector-curvature="0" fill="#5D5D5D" d="M-0.294-0.317h54.611v28.551H-0.294V-0.317z"/>
<path id="rect38" inkscape:connector-curvature="0" d="M-0.294,27.674h54.611v27.99H-0.294V27.674z"/>
<path id="line40" inkscape:connector-curvature="0" fill="none" stroke="#FFFFFF" stroke-width="1.725" stroke-miterlimit="10" d="
	M9.248,27.672h35.529"/>
</svg>
