<svg xmlns="http://www.w3.org/2000/svg" width="282.083" height="65.832" viewBox="370.958 351.084 282.083 65.832"><path fill="#0079E3" d="M424.576 352.364c-1.628 0-3.024.581-4.188 1.744s-1.628 2.443-1.628 4.071v28.961c0 5.001-1.861 9.305-5.351 12.793-3.605 3.606-7.792 5.352-12.794 5.352-5.001 0-9.188-1.745-12.794-5.352-3.489-3.488-5.233-7.792-5.233-12.793v-28.96c0-1.628-.582-2.908-1.745-4.071s-2.442-1.744-4.07-1.744c-1.629 0-3.024.581-4.188 1.744s-1.628 2.443-1.628 4.071v28.961c0 8.258 2.791 15.236 8.606 21.052s12.794 8.724 21.052 8.724c8.142 0 15.237-2.908 21.053-8.724s8.723-12.794 8.723-21.052V358.18c0-1.628-.581-2.908-1.744-4.071s-2.442-1.745-4.071-1.745zM502.738 411.332c0-1.512-.582-2.907-1.629-4.07l-18.493-22.099 17.563-22.913c1.047-1.396 1.629-2.908 1.629-4.652 0-1.396-.465-2.559-1.396-3.49-.931-.93-2.094-1.512-3.605-1.512-1.861 0-3.373.698-4.304 1.977l-17.098 22.797-19.074-22.797c-1.163-1.279-2.559-1.977-4.42-1.977-1.629 0-2.908.465-3.838 1.396-.931.931-1.279 2.094-1.279 3.373 0 1.628.581 3.024 1.744 4.42l19.191 22.68-18.029 22.564c-1.163 1.396-1.628 2.791-1.628 4.303 0 1.396.349 2.56 1.279 3.49.93.93 2.094 1.396 3.722 1.396s3.024-.582 4.187-1.861l17.563-22.099 18.493 22.099c.93 1.279 2.326 1.861 4.187 1.861 1.513 0 2.792-.466 3.722-1.396.931-.93 1.513-2.093 1.513-3.49zM543.856 416.683c7.676 0 14.422-2.326 20.354-7.211 1.279-.931 1.861-2.21 2.094-3.722.116-1.629-.232-2.908-1.279-4.188-.931-1.163-2.21-1.861-3.722-1.977-1.513-.117-2.908.232-4.071 1.279-3.954 3.14-8.374 4.652-13.375 4.652-5.815 0-10.817-1.978-14.888-6.165-4.188-4.071-6.165-9.071-6.165-14.887 0-5.815 1.978-10.817 6.165-15.004 4.07-4.071 9.072-6.165 14.888-6.165 4.769 0 9.071 1.512 12.91 4.42 3.722 2.908 6.164 6.629 7.443 11.166h-20.354c-1.513 0-2.908.582-3.955 1.628s-1.628 2.442-1.628 3.955c0 1.511.581 2.908 1.628 3.955s2.442 1.628 3.955 1.628h26.751c1.512 0 2.791-.581 3.838-1.628 1.163-1.047 1.744-2.443 1.744-3.955 0-8.956-3.256-16.516-9.537-22.796-6.28-6.281-13.841-9.538-22.796-9.538-8.956 0-16.517 3.257-22.797 9.538-6.28 6.28-9.421 13.84-9.421 22.796s3.141 16.515 9.421 22.796 13.841 9.423 22.797 9.423zM647.226 416.566c1.628 0 3.024-.582 4.188-1.744 1.163-1.164 1.628-2.559 1.628-4.188v-29.892c0-8.142-2.907-15.12-8.606-20.936-5.815-5.815-12.91-8.723-21.052-8.723-8.259 0-15.237 2.908-21.053 8.723-5.814 5.815-8.723 12.794-8.723 20.936v29.892c0 1.629.582 3.023 1.745 4.188 1.163 1.162 2.559 1.628 4.07 1.628 1.628 0 3.024-.466 4.188-1.628 1.163-1.164 1.628-2.559 1.628-4.188v-29.892c0-4.885 1.861-9.188 5.351-12.677 3.489-3.606 7.792-5.351 12.794-5.351 5.001 0 9.188 1.745 12.794 5.351 3.489 3.489 5.233 7.792 5.233 12.677v30.008c0 1.513.582 2.907 1.745 4.071 1.163 1.163 2.558 1.745 4.07 1.745z"/></svg>